<svg xmlns="http://www.w3.org/2000/svg" viewBox="0 0 319.67 248.38"><defs><style>.cls-1{fill:#d8c40b;}.cls-2{font-size:73px;font-family:ArialRoundedMTBold, Arial Rounded MT Bold;}</style></defs><title>error_404</title><g id="Camada_2" data-name="Camada 2"><g id="Camada_2-2" data-name="Camada 2"><polygon class="cls-1" points="301.03 235.38 156.5 18.41 18.34 235.38 301.03 235.38"/><path d="M318.58,238.28,161.79,2.9A6.43,6.43,0,0,0,156.31,0a6.5,6.5,0,0,0-5.41,3L1,238.39a6.49,6.49,0,0,0,5.48,10H313.17a6.5,6.5,0,0,0,5.41-10.1ZM6.5,241.88,156.38,6.5,313.17,241.88Z"/><path d="M6.5,241.88H313.17L156.38,6.5ZM301,235.38H18.34l138.16-217Z"/><text class="cls-2" transform="translate(89.68 189.1)">404</text></g></g></svg>