<svg xmlns="http://www.w3.org/2000/svg" viewBox="0 0 327.8 171.65"><defs><style>.cls-1{fill:#333c40;}.cls-2{fill:#393e40;}.cls-3{fill:#b8d6e5;}.cls-4{fill:#9ab3bf;}</style></defs><title>error_500</title><g id="Camada_2" data-name="Camada 2"><g id="Camada_2-2" data-name="Camada 2"><path class="cls-1" d="M327.8,120.9c0,8.31-6.87,15-15.17,15.36l-48.35,2a1.75,1.75,0,0,0-1.09,3c16.49,14.74,3.19,27.86-1.38,29.51h0a16.92,16.92,0,0,1-5.62.8l-182.85-.43a41.34,41.34,0,0,1-6.84-.72,7.61,7.61,0,0,1-3.59-2c-11.21-12.84,1.35-30,17.26-30H92.27a1.82,1.82,0,0,0,1.24-.48c7.87-7.54,1.11-14.07-.91-15.73a1.8,1.8,0,0,0-1.15-.41H24.93C13.11,121.8,2.59,113.6.42,102a24.38,24.38,0,0,1-.08-8.51C2.38,80.93,13.6,72,26.31,72H114a1.8,1.8,0,0,1,1.8,1.79l-2.18,24.89a1.93,1.93,0,0,0,.21,1h0a1.44,1.44,0,0,0,.28.37.8.8,0,0,0,.17.15l.15.11,4.77,2.81a1.79,1.79,0,0,0,2.69-1.31l3.3-28.27A1.79,1.79,0,0,1,127,72h.09a1.8,1.8,0,0,1,1.79,2l-4,34.58a1.8,1.8,0,0,0,1.39,2l10.38,2.34a1.79,1.79,0,0,0,2.18-1.56l.11-1a1.79,1.79,0,0,1,1.71-1.61l2.74-.1v0l10.37-.16,3.62-.05c0-.1,0-.2,0-.31l3.06-.11.63,0c0,.13,0,.26,0,.38l14.59-.22.06-.63,1.69,0a1.81,1.81,0,0,1,1.86,1.8l-.24,2.52h0v.17a1.8,1.8,0,0,0,1.8,1.8h51.46a.75.75,0,0,0,.21,0,1.82,1.82,0,0,0,1.43-1.27,1,1,0,0,0,.05-.25l.44-4.43a1.79,1.79,0,0,1,1.76-1.59l2.1,0-.11,1.07h17.66c0-.38,0-.77,0-1.18h3.68c0,.4,0,.8,0,1.18h37.63l0-.43,3.67.2c11.31.67,19.16,1.75,21.44,3.39A12.45,12.45,0,0,1,327.8,120.9Z"/><path class="cls-1" d="M238.62,64.9l-.42,4.21-3.62,37-.59,6a1.7,1.7,0,0,1-1.69,1.54H180.73a1.7,1.7,0,0,1-1.69-1.86v-.11h0l.42-4.38,4-41.72.41-4.47,4.46-46.62.16-1.73a1.7,1.7,0,0,1,1.68-1.53l.25,0,51.1,7.24A1.7,1.7,0,0,1,243,20.34Z"/><path d="M305.4,32,248.1,21.87A1.71,1.71,0,0,1,246.7,20l.28-2.84a1.7,1.7,0,0,0-1.45-1.85L187.15,7.06a1.7,1.7,0,0,0-1.94,1.53L185,10.42a1.7,1.7,0,0,1-1.95,1.52L155,7.71a1.66,1.66,0,0,1-1.25-.9,1.71,1.71,0,0,1-.19-1l.19-1.8L154,1.88a1.67,1.67,0,0,0-.23-1A1.68,1.68,0,0,0,152.33,0h-17a1.71,1.71,0,0,0-1.69,1.5l-.09.84a1.73,1.73,0,0,1-1.48,1.5L119.51,5.4A1.7,1.7,0,0,0,118,6.94l-5.72,65-2.53,28.74s0,.09,0,.13a1.75,1.75,0,0,0,.85,1.49l9.6,5.66a1.68,1.68,0,0,1,.83,1.66l-.21,1.82a1.7,1.7,0,0,0,1.31,1.86l1.51.34L140,117.34a1.71,1.71,0,0,0,2.07-1.49l.22-2.13s0,0,0-.07A1.68,1.68,0,0,1,144,112.2l9.83-.15,6.92-.1,12.74-.19a1.7,1.7,0,0,1,1.72,1.86l-.18,1.86a1.7,1.7,0,0,0,1.69,1.86h59a1.7,1.7,0,0,0,1.69-1.54l.34-3.43a1.7,1.7,0,0,1,1.69-1.54H299a1.7,1.7,0,0,0,1.7-1.56l.19-2.36L306.8,33.8A1.69,1.69,0,0,0,305.4,32ZM136.91,5.19a1.71,1.71,0,0,1,1.7-1.51h9.62a1.7,1.7,0,0,1,1.69,1.88L139.13,108.67l-.16,1.55-.11,1v.11a1.71,1.71,0,0,1-2.07,1.48l-10.48-2.37-.09,0a1.7,1.7,0,0,1-1.31-1.86v-.08l4-34.58.23-2Zm-15,96.62v.12a1.7,1.7,0,0,1-2.55,1.27l-.13-.08-4.77-2.81-.15-.11a.8.8,0,0,1-.17-.15,1.44,1.44,0,0,1-.28-.37h0a1.65,1.65,0,0,1-.22-1v-.06l2.18-24.89L116,72l5.42-61.71a1.7,1.7,0,0,1,1.48-1.54l7.86-1a1.7,1.7,0,0,1,1.9,1.89L125.44,72l-.18,1.59Zm35.45,6.51-3.62.05-10.37.16v0l4.16-45.12,0-.27,0-.29,5.24-49.95a1.69,1.69,0,0,1,.93-1.33,1.61,1.61,0,0,1,1-.17l28.11,4.26a1.7,1.7,0,0,1,1.44,1.84L180.05,62.6a1.72,1.72,0,0,1-.73,1.25c-.22.14-.42.29-.64.44-19,13.43-21.09,36.26-21.26,43.72C157.41,108.12,157.41,108.22,157.41,108.32Zm18.28-.28-14.59.22c0-.12,0-.25,0-.38.15-6.45,1.85-24.34,15.12-36.85a1.71,1.71,0,0,1,2.87,1.41l-3.35,35Zm58.3,4.07a1,1,0,0,1-.05.25,2.25,2.25,0,0,1-.08.24s0,0,0,0a1.63,1.63,0,0,1-.66.78,1.47,1.47,0,0,1-.28.14,1.45,1.45,0,0,1-.41.1.75.75,0,0,1-.21,0H180.73a1.67,1.67,0,0,1-1.2-.5,1.77,1.77,0,0,1-.36-.53,1.67,1.67,0,0,1-.13-.77v-.17h0l.24-2.52.18-1.86,4-41.72.41-4.47,4.46-46.62.16-1.73a1.7,1.7,0,0,1,1.68-1.53l.25,0,51.1,7.24A1.7,1.7,0,0,1,243,20.34L238.62,64.9l-.42,4.21-3.62,37-.15,1.57Zm21.85-5H238.18l.11-1.07,3-30.55a1.71,1.71,0,0,1,2.95-1c.8.86,1.57,1.77,2.3,2.7,7.7,9.87,9.28,21.29,9.32,28.73C255.85,106.37,255.85,106.76,255.84,107.14Zm41.35-.43,0,.43H259.52c0-.38,0-.78,0-1.18,0-8-1.74-20.3-10.1-31A47.64,47.64,0,0,0,242.75,68a1.69,1.69,0,0,1-.59-1.46L246,27.12a1.7,1.7,0,0,1,2-1.51L301.44,35a1.7,1.7,0,0,1,1.41,1.81Z"/><path class="cls-2" d="M149.92,5.56,139.13,108.67l-.16,1.55-.11,1a1.79,1.79,0,0,1-2.18,1.56l-10.38-2.34a1.8,1.8,0,0,1-1.39-2l4-34.58.23-2,7.76-66.76a1.71,1.71,0,0,1,1.7-1.51h9.62A1.7,1.7,0,0,1,149.92,5.56Z"/><path class="cls-2" d="M132.68,9.6,125.44,72l-.18,1.59L122,101.81a1.79,1.79,0,0,1-2.69,1.31l-4.77-2.81-.15-.11a.8.8,0,0,1-.17-.15,1.44,1.44,0,0,1-.28-.37h0a1.93,1.93,0,0,1-.21-1l2.18-24.89L116,72l5.42-61.71a1.7,1.7,0,0,1,1.48-1.54l7.86-1A1.7,1.7,0,0,1,132.68,9.6Z"/><path class="cls-3" d="M255.85,106c0,.41,0,.8,0,1.18H238.18l.11-1.07,3-30.55a1.71,1.71,0,0,1,2.95-1c.8.86,1.57,1.77,2.3,2.7C254.23,87.1,255.81,98.52,255.85,106Z"/><path class="cls-3" d="M179.1,72.44l-3.35,35-.06.63-14.59.22c0-.12,0-.25,0-.38.15-6.45,1.85-24.34,15.12-36.85A1.71,1.71,0,0,1,179.1,72.44Z"/><path class="cls-4" d="M243,20.34,238.62,64.9l-.42,4.21-3.62,37-.59,6a1.7,1.7,0,0,1-1.69,1.54H180.73a1.7,1.7,0,0,1-1.69-1.86v-.11h0l.42-4.38,4-41.72.41-4.47,4.46-46.62.16-1.73a1.7,1.7,0,0,1,1.68-1.53l.25,0,51.1,7.24A1.7,1.7,0,0,1,243,20.34Z"/></g></g></svg>