<svg xmlns="http://www.w3.org/2000/svg" viewBox="0 0 274.95 411.75"><defs><style>.cls-1{fill:#a8a8a8;}.cls-1,.cls-2{stroke:#000;stroke-miterlimit:10;stroke-width:4px;}.cls-2{fill:#d31f11;}.cls-3{font-size:70px;fill:snow;font-family:FranklinGothic-Heavy, Franklin Gothic Heavy;font-weight:800;}.cls-4{letter-spacing:0.01em;}</style></defs><title>error_419</title><g id="Camada_2" data-name="Camada 2"><g id="Camada_4" data-name="Camada 4"><rect class="cls-1" x="129.1" y="242.76" width="16.76" height="166.99"/><path class="cls-2" d="M270.34,131.89,215.56,232a21.29,21.29,0,0,1-18.32,11.08l-114.11,2a21.31,21.31,0,0,1-18.6-10.29L5.07,136.43a21.33,21.33,0,0,1-.45-21.26L59.39,15.06A21.29,21.29,0,0,1,77.71,4L191.82,2a21.3,21.3,0,0,1,18.6,10.29l59.46,98.34A21.33,21.33,0,0,1,270.34,131.89Z"/><text class="cls-3" transform="translate(54.3 149.02)"><tspan class="cls-4">S</tspan><tspan x="43.07" y="0">TOP</tspan></text></g></g></svg>