<svg xmlns="http://www.w3.org/2000/svg" viewBox="0 0 269.92 210.03"><defs><style>.cls-1{fill:#b7b7b7;}.cls-2{fill:#00447f;}.cls-3{fill:none;}.cls-4{font-size:34.35px;fill:#fff;font-family:FranklinGothic-Heavy, Franklin Gothic Heavy;font-weight:800;}</style></defs><title>error_404</title><g id="Camada_2" data-name="Camada 2"><g id="Camada_3" data-name="Camada 3"><rect class="cls-1" x="112.26" y="115.15" width="3.93" height="88.87"/><path d="M117.69,112.15H114l3.87,0A.47.47,0,0,0,117.69,112.15Zm-7,97.87h0Z"/><path class="cls-2" d="M173.61,63.29l-25.26,43.62a10.76,10.76,0,0,1-9.29,5.35l-21.2-.09-3.87,0L88.92,112a10.72,10.72,0,0,1-9.24-5.43L54.8,62.76a10.86,10.86,0,0,1,0-10.77L80.1,8.37A10.72,10.72,0,0,1,89.2,3h.19l50.14.22a10.72,10.72,0,0,1,9.24,5.43l24.88,43.85A10.86,10.86,0,0,1,173.61,63.29Z"/><path d="M112.26,115.15h0l3.93,0v0Z"/><path d="M182.76,204H119.19V115.19l19.86.09h.24a13.72,13.72,0,0,0,11.65-6.85L176.2,64.81A13.9,13.9,0,0,0,176.26,51L151.38,7.17A13.75,13.75,0,0,0,139.54.22L89.4,0A13.79,13.79,0,0,0,77.51,6.84L52.25,50.47a13.9,13.9,0,0,0-.06,13.79l24.88,43.85a13.73,13.73,0,0,0,11.84,7l20.35.09V204H45.69a3,3,0,0,0,0,6H182.76a3,3,0,0,0,0-6Zm-66.57,0h-3.93V115.15h3.93ZM114,112.15,88.92,112a10.72,10.72,0,0,1-9.24-5.43L54.8,62.76a10.86,10.86,0,0,1,0-10.77L80.1,8.37A10.72,10.72,0,0,1,89.2,3h.19l50.14.22a10.72,10.72,0,0,1,9.24,5.43l24.88,43.85a10.86,10.86,0,0,1,0,10.77l-25.26,43.62a10.76,10.76,0,0,1-9.29,5.35l-21.2-.09Z"/><line class="cls-3" x1="3" y1="207.02" x2="32.54" y2="207.02"/><path d="M32.54,210H3a3,3,0,0,1,0-6H32.54a3,3,0,0,1,0,6Z"/><line class="cls-3" x1="189.69" y1="207.02" x2="266.92" y2="207.02"/><path d="M266.92,210H189.69a3,3,0,0,1,0-6h77.23a3,3,0,0,1,0,6Z"/><text class="cls-4" transform="matrix(1, 0, 0, 1, 84.85, 70.91)">404</text></g></g></svg>