<?xml version="1.0" encoding="utf-8"?>
<!-- Generator: Adobe Illustrator 23.0.1, SVG Export Plug-In . SVG Version: 6.00 Build 0)  -->
<svg version="1.1" id="Nariz" xmlns="http://www.w3.org/2000/svg" xmlns:xlink="http://www.w3.org/1999/xlink" x="0px" y="0px"
	 viewBox="0 0 1024 1280" style="enable-background:new 0 0 1024 1280;" xml:space="preserve">
<style type="text/css">
	.st0{fill:#FFF1B4;}
	.st1{fill:none;}
	.st2{fill:#FFF0C9;}
	.st3{fill:#C7B299;}
	.st4{fill:#534741;}
	.st5{fill:#FFFFFF;}
	.st6{fill:#998675;}
</style>
<g>
	<path class="st0" d="M627.7,514.7c0,10.2-1.3,20.1-3.9,29.5l3.9-31.2C627.7,513.5,627.7,514.1,627.7,514.7z"/>
	<path class="st0" d="M636.8,439.5c0,10.4-1.3,20.4-3.7,30L636.8,439.5z"/>
	<path class="st1" d="M395.6,464.5c-1.4-6.6-2.2-13.4-2.5-20.3L395.6,464.5z"/>
	<path class="st2" d="M404.5,537.5c-1.2-5.9-2-12-2.2-18.2L404.5,537.5z"/>
	<path class="st3" d="M322.4,527.9c3.9,0,7.8-0.4,11.5-1.2c16.7,63.5,66.3,113.7,129.5,131.1v40c-109.8,12.4-193,66-196.1,130.8
		h489.4c-3.1-65.1-87.1-118.9-197.6-131v-39.1c64.1-16.6,114.6-66.8,131.8-130.6l0-0.1c1.1,0.1,2.1,0.1,3.2,0.1
		c30.5,0,55.1-24.7,55.1-55.1c0-26.9-19.3-49.3-44.8-54.2l1.6-12.9l6.1-49.2c0-110.3-89.4-199.7-199.7-199.7
		s-199.7,89.4-199.7,199.7c0,2.5,0.1,5,0.2,7.5v0.1l4,33.4l2.5,20.3c-29.2,1.5-52.3,25.6-52.3,55.1
		C267.2,503.2,291.9,527.9,322.4,527.9z"/>
	<path class="st4" d="M424.3,446.1c-2.3,2.9-5,5.1-7.8,6.3c1.5-1.4,3.1-2.7,4.6-3.9C422.1,447.6,423.2,446.8,424.3,446.1z"/>
	<g>
		<path class="st4" d="M730.8,384.8c-0.1,3.8-0.3,7.7-0.5,11.5c-0.6,8.1-1.5,16.2-2.9,24.2c-0.7,4-1.5,8-2.4,12
			c-0.4,1.7-0.8,3.4-1,5.1c-0.2,1.8,0.1,3.6-0.2,5.3c-0.3,1.9-1.2,3.6-2.1,5.3c-2.6,4.7-4,10.4-6.2,15.4c-2.3,5.2-4.8,10.2-7.6,15.1
			c-1.3,2.3-2.7,4.5-4.4,6.5c-0.7,0.9-1.7,2.3-2.7,2.7c-0.9,0.4-2.8,0.3-3.7,0.2c-0.6-0.1-1.2-0.3-1.8-0.6c-2.2-1-3.4-2.4-4.4-4.5
			c-0.9-2-2.7-3.4-3.5-5.5c-1.5-3.8-0.2-8.2-0.2-12.2c0.1-8.1-0.2-16.3-0.8-24.4c-0.2-2.6-0.5-5.2,0.1-7.7c0.6-3-3.9-10-5.2-13.3
			c-2-5.2-4.2-10.3-6.7-15.2c-4.3-8.6-9.6-16.7-16.2-23.6c0.8,0.6,1.6,1,2.6,1.3l-5.1-3.8c-0.3-0.5-0.7-1-0.9-1.5
			c-19.1-6.2-38.1-24.2-51.3-49.5c-21.2,8.5-45.8,14.5-72.6,17.2c-14,3.8-29.1,6.3-44.9,7.4c-13.6,2.4-28.5,3.8-44.2,3.8
			c-8.6,0-16.9-0.4-24.9-1.2c-9.6,4.4-26.8,4.9-34.2,5.8c-7.2,0.8-13.1,2.9-18.7,6.6c-1.8,1.1-3.6,2.4-5.3,3.9
			c-2.4,2-5.1,4.1-7.5,6.4c-5.2,4.8-9.7,10.4-10.3,17.6c-1,11.2-3.7,22.3-4.1,33.6c-0.2,6.3,0.1,12.6,0,18.9
			c-0.2,11.8-1.8,23.7-4.8,35.2c-1.4,5.2-5.1,14.6-11.9,12.8c-6.7-1.8-9.9-13.1-11.5-18.6c-3-10.2-4.8-20.8-5.8-31.4
			c-1-9.7-4.7-18.1-5-28.2c-0.3-10.8-2.8-20.3-3.7-31c-1.1-13.1-1.6-26.2-1.5-39.3c0.4-34.9,3.5-71.2,17.4-103.5
			c2.7-6.1,5.8-12.7,10.4-17.7c17.5-45,90.1-78.7,177.1-78.7c71.9,0,134.1,23.1,163.3,56.5c13.3,8.4,25.7,22.2,35.4,39.7
			c0.6,0.6,1.2,1.3,1.8,1.8c5.3,5,10.5,10,14.9,15.9c3.6,4.8,6.5,10.1,9,15.6c1.2,2.8,2.3,5.6,3.3,8.4c0.5,1.4,0.8,2.9,1.5,4.1
			c0.6,1.1,0.9,1.9,1,3.2c0,0.5,0.1,1,0.1,1.4c0.2,1.9,0.8,3.6,1,5.5c0.3,2,0.2,4.1,0.3,6.2c0.2,4.2,0.4,8.4,0.6,12.5
			c0.3,8.4,0.6,16.7,0.7,25.1c0.2,10.3-0.1,20.5,0.3,30.8C730.7,377.7,730.9,381.2,730.8,384.8z"/>
	</g>
	<g>
		<path class="st4" d="M605.4,455.4c-0.6-0.2-1.1-0.4-1.6-0.8c-0.5-0.4-1-0.8-1.4-1.4c-0.1-0.1-0.2-0.2-0.3-0.3l0.2,0.1L605.4,455.4
			z"/>
	</g>
	<ellipse class="st4" cx="415.4" cy="459.8" rx="21.8" ry="20.2"/>
	<ellipse class="st4" cx="606.4" cy="459.8" rx="21.8" ry="20.2"/>
	<circle class="st5" cx="599.4" cy="451.3" r="7"/>
	<circle class="st5" cx="406.1" cy="451.3" r="7"/>
	<g>
		<path class="st4" d="M391.1,406.3c14.8-7.7,33.5-9.5,47.1,1.7c10,8.3,24.5-6,14.4-14.4c-21.1-17.5-48.2-17.2-71.8-4.9
			C369.1,394.8,379.4,412.4,391.1,406.3L391.1,406.3z"/>
		<path class="st4" d="M579.9,407.7c15.9-9.2,34.1-10.9,49.3,0.6c10.5,7.9,20.7-9.8,10.3-17.6c-20.8-15.7-48.3-13.1-69.8-0.6
			C558.2,396.7,568.5,414.3,579.9,407.7L579.9,407.7z"/>
	</g>
	<path class="st4" d="M468.7,590.5c26.5,14.8,58.8,15,85.5,0.5c5.8-3.1,0.6-11.9-5.1-8.8c-23.5,12.8-51.9,12.6-75.2-0.5
		C468.1,578.5,463,587.3,468.7,590.5L468.7,590.5z"/>
	<g>
		<g>
			<path class="st6" d="M491.8,530.1c3.5,10.8,16.8,16.4,27.5,15.9c11.4-0.6,21.4-7.6,26.4-17.8c0.8-1.7-1.7-3.2-2.6-1.5
				c-4.3,8.7-12.5,15.2-22.3,16.2c-9.6,1-22.8-3.5-26.1-13.6C494.1,527.5,491.2,528.3,491.8,530.1L491.8,530.1z"/>
		</g>
	</g>
</g>
</svg>
