<svg xmlns="http://www.w3.org/2000/svg" viewBox="0 0 812.18 1037.54"><defs><style>.cls-1{fill:#736357;}.cls-2{fill:#998675;}.cls-3{fill:#42210b;}.cls-4{fill:#603813;}.cls-5{fill:#fff;}</style></defs><title>femauser_</title><g id="Camada_2" data-name="Camada 2"><g id="Camada_1-2" data-name="Camada 1"><g id="BODY"><path class="cls-1" d="M337.57,824.22v60.49C190,899.23,78.68,962.13,77.07,1037.54H728.31c-1.62-75.41-112.11-137.91-258.48-152.83V824.22C602.9,790.76,702.5,657.69,702.5,498.41c0-184.69-133.88-333.89-298.8-333.89S104.9,314.12,104.9,498.41C104.9,657.28,204.5,790.35,337.57,824.22Z"/><path class="cls-2" d="M380.31,663.73c17.34,5.25,34.27,6.46,51.61-.4,3.63-1.21,2-7.26-1.61-5.64-16.13,6-31.86,5.24-48.39.4-4-1.21-5.64,4.84-1.61,5.64Z"/><path class="cls-2" d="M354.5,725.43c34.68,10.89,68.55,12.5,102.83-.4,7.26-2.83,4-14.52-3.23-11.7-32.66,12.5-63.71,10.89-96.37.41-7.66-2.42-10.89,9.27-3.23,11.69Z"/></g><g id="HEAD"><path class="cls-3" d="M628.71,562.52l-.81.81a11.26,11.26,0,0,1,.4-3.63C628.3,560.5,628.71,561.31,628.71,562.52Z"/><path class="cls-3" d="M800.49,507.68a51.75,51.75,0,0,1-31.86,47.58,57.41,57.41,0,0,1,2.82,16.94,51,51,0,0,1-20.56,41.13v2.42a31.19,31.19,0,0,1-32.67,29.84h-1.61a36.59,36.59,0,0,1,3.23,14.92,31.47,31.47,0,0,1-16.13,26.21c-6.05,8.87-16.13,14.52-27.42,13.71a23.52,23.52,0,0,1-5.65-.81,30.63,30.63,0,0,1-31.45,22.58,31.17,31.17,0,0,1-29.84-32.66,27.78,27.78,0,0,1,2-9.68,32.41,32.41,0,0,1-2-12.5,31,31,0,0,1,16.94-26.61A37.93,37.93,0,0,1,635.16,625c-11.29-8.06-18.55-21.37-17.75-35.89a41.22,41.22,0,0,1,11.29-26.61h0c.41,0,.41-.4.81-.81,0-1.21-.4-2-.4-3.22v-4.44a41.13,41.13,0,0,1,12.1-27.42,41.73,41.73,0,0,1-23.8-39.51,42.26,42.26,0,0,1,14.92-30.25A41.79,41.79,0,0,1,596,413.73a35,35,0,0,1,2-11.3,39.38,39.38,0,0,1-18.15,3.23,41.49,41.49,0,0,1-38.3-30.24,39.59,39.59,0,0,1-16.13-8.87c-7.26,4.84-16.54,7.66-27,7.66-18.95,0-35.08-9.68-39.92-22.58C451.28,360.9,438,367,422.65,367c-9.68,0-18.95-2.42-26.21-6.86-7.26,4.44-16.13,6.86-26.21,6.86-12.5,0-23.79-4-31.45-10.89-6.46,10.89-21,18.15-37.91,18.15-12.5,0-23.79-4-31.45-10.89a41.82,41.82,0,0,1-42.34,31.86,30.82,30.82,0,0,1-10.89-2L213.37,396a41.25,41.25,0,0,1-39.52,54,22,22,0,0,1-2,3.22c1.62,4.44,2,9.28,2,14.52a34.6,34.6,0,0,1-.81,6.45,42.9,42.9,0,0,1,13.31,32.26,43.8,43.8,0,0,1-9.27,24.6,32.44,32.44,0,0,1,4,16.53,31.43,31.43,0,0,1-7.26,18.95,44.2,44.2,0,0,1,.4,7.26A32.58,32.58,0,0,1,169,614.54a32.76,32.76,0,0,1,8.07,23v2A32.48,32.48,0,0,1,195.22,669a32.42,32.42,0,0,1,8.07,22.58,32,32,0,0,1-33.47,30.64,32.41,32.41,0,0,1-30.65-28.63,53.1,53.1,0,0,1-8.06.41c-21-.81-37.51-17.34-39.52-37.5a40.59,40.59,0,0,1-21-14.52c-21.37-2.82-37.5-21.37-36.29-43.15A41.86,41.86,0,0,1,44.41,573a41.85,41.85,0,0,1-9.68-19.35,41.6,41.6,0,0,1-22.18-63.31,42.57,42.57,0,0,1-7.25-25.4c.4-5.25,1.2-10.08,3.22-14.52a41.79,41.79,0,0,1,12.1-61.29,41.64,41.64,0,0,1,12.1-76.62A42,42,0,0,1,15,276.62,41.32,41.32,0,0,1,48,237.91,41.32,41.32,0,0,1,84.73,173.8a31.28,31.28,0,0,1,6,.8,54.41,54.41,0,0,1-.4-8.06A41.51,41.51,0,0,1,133.93,127,40.86,40.86,0,0,1,144,128.63a51.73,51.73,0,0,1,51.61-48.79,46.74,46.74,0,0,1,7.67.4,51.53,51.53,0,0,1,49.19-36.69A46.1,46.1,0,0,1,269,46.37c9.28-11.29,23.39-18.14,39.52-18.14a51.71,51.71,0,0,1,28.23,8.46C343.21,15.73,362.57,0,386,0a48.71,48.71,0,0,1,27.42,8.06,44.2,44.2,0,0,1,7.26-.4,51.62,51.62,0,0,1,35.89,14.52,51.43,51.43,0,0,1,21,6.85A51.5,51.5,0,0,1,546,45.16a60.9,60.9,0,0,1,8.87-.8A51.82,51.82,0,0,1,601.69,74.2c1.61,0,3.22-.41,4.84-.41A51.29,51.29,0,0,1,653.3,104a52.19,52.19,0,0,1,38.31,26.61,50.37,50.37,0,0,1,22.18,21.77,52.21,52.21,0,0,1,25.81,28.23,51.74,51.74,0,0,1,31.85,47.58A48.56,48.56,0,0,1,769,243.56a51,51,0,0,1,25.41,44.35,53,53,0,0,1-5.65,23.79,52.77,52.77,0,0,1,12.1,33.07,50.54,50.54,0,0,1-12.1,33.07,51.54,51.54,0,0,1-6.45,89.92A53.94,53.94,0,0,1,800.49,507.68Z"/></g><g id="EYES"><circle class="cls-4" cx="274.26" cy="552.04" r="29.03"/><circle class="cls-4" cx="535.96" cy="552.04" r="29.03"/><circle class="cls-5" cx="259.34" cy="540.75" r="7.26"/><circle class="cls-5" cx="520.64" cy="540.75" r="7.26"/><path class="cls-3" d="M317.81,447.6c-26.62-7.66-65.33-14.52-89.93.8-13.3,8.07-1.21,29,12.1,21,18.15-11.29,52-4,71.37,1.62,14.92,4,21.38-19.36,6.46-23.39Z"/><path class="cls-3" d="M492.41,447.6c26.61-7.66,65.32-14.52,89.92.8,13.31,8.07,1.21,29-12.09,21-18.15-11.29-52-4-71.38,1.62-15.32,4-21.37-19.36-6.45-23.39Z"/></g></g></g></svg>